%TF.GenerationSoftware,KiCad,Pcbnew,8.0.0*%
%TF.CreationDate,2024-05-19T21:12:01-04:00*%
%TF.ProjectId,nrf52-module-usb-carrier-hw,6e726635-322d-46d6-9f64-756c652d7573,rev?*%
%TF.SameCoordinates,PX5544200PY68a5100*%
%TF.FileFunction,Copper,L2,Bot*%
%TF.FilePolarity,Positive*%
%FSLAX46Y46*%
G04 Gerber Fmt 4.6, Leading zero omitted, Abs format (unit mm)*
G04 Created by KiCad (PCBNEW 8.0.0) date 2024-05-19 21:12:01*
%MOMM*%
%LPD*%
G01*
G04 APERTURE LIST*
%TA.AperFunction,ComponentPad*%
%ADD10O,1.000000X2.100000*%
%TD*%
%TA.AperFunction,ComponentPad*%
%ADD11O,1.000000X1.600000*%
%TD*%
%TA.AperFunction,ComponentPad*%
%ADD12C,4.400000*%
%TD*%
%TA.AperFunction,ViaPad*%
%ADD13C,0.635000*%
%TD*%
%TA.AperFunction,Conductor*%
%ADD14C,0.261112*%
%TD*%
%TA.AperFunction,Conductor*%
%ADD15C,0.558800*%
%TD*%
G04 APERTURE END LIST*
D10*
%TO.P,J1,S1,SHIELD*%
%TO.N,GND*%
X14730000Y5645000D03*
D11*
X14730000Y1465000D03*
D10*
X23370000Y5645000D03*
D11*
X23370000Y1465000D03*
%TD*%
D12*
%TO.P,H3,1,1*%
%TO.N,GND*%
X2540000Y48260000D03*
%TD*%
%TO.P,H4,1,1*%
%TO.N,GND*%
X35560000Y48260000D03*
%TD*%
D13*
%TO.N,GND*%
X22606000Y25400000D03*
X5588000Y16764000D03*
X9652000Y19812000D03*
X5588000Y19812000D03*
X5080000Y25400000D03*
X5080000Y37592000D03*
X29972000Y37592000D03*
X3048000Y8636000D03*
X37338000Y13970000D03*
X1016000Y16764000D03*
X1016000Y23368000D03*
X25908000Y9652000D03*
X33528000Y10922000D03*
X33528000Y18796000D03*
X29972000Y39624000D03*
X1524000Y40640000D03*
X16764000Y1524000D03*
X21336000Y1524000D03*
X19304000Y1524000D03*
X19812000Y19812000D03*
X9652000Y22352000D03*
X7620000Y26416000D03*
X10160000Y26416000D03*
X8636000Y23876000D03*
X35052000Y23876000D03*
X35052000Y25908000D03*
X32512000Y25908000D03*
X32512000Y23876000D03*
X8636000Y49276000D03*
X8636000Y46736000D03*
X32004000Y46736000D03*
X29972000Y46736000D03*
X29972000Y48260000D03*
X5588000Y18288000D03*
X1016000Y29464000D03*
X1016000Y31496000D03*
X1016000Y33528000D03*
%TO.N,+3V3*%
X22860000Y17272000D03*
%TO.N,GND*%
X29972000Y10160000D03*
X37084000Y10160000D03*
X37084000Y18288000D03*
X29972000Y18288000D03*
%TO.N,+3V3*%
X30988000Y22352000D03*
X10668000Y20828000D03*
X2540000Y24892000D03*
X2540000Y33782000D03*
X18034000Y15801696D03*
%TO.N,GND*%
X12700000Y17272000D03*
X37084000Y22352000D03*
X21844000Y12192000D03*
X21844000Y13716000D03*
X18288000Y13716000D03*
X16256000Y13716000D03*
X14732000Y13716000D03*
X13208000Y13716000D03*
X9652000Y13716000D03*
%TO.N,+3V3*%
X6657696Y15801696D03*
X3937000Y14732000D03*
%TO.N,GND*%
X8636000Y16764000D03*
X21844000Y25908000D03*
X762000Y19812000D03*
X6604000Y13716000D03*
X9144000Y8636000D03*
X16256000Y20828000D03*
X8128000Y13716000D03*
X23876000Y9652000D03*
X26162000Y24892000D03*
X26670000Y23876000D03*
X13716000Y19304000D03*
X13716000Y8636000D03*
X33528000Y33020000D03*
X15748000Y10160000D03*
X19241000Y24053800D03*
X11684000Y17272000D03*
X6858000Y31242000D03*
X15494000Y23368000D03*
X35360000Y29264000D03*
X19558000Y8636000D03*
X24130000Y22352000D03*
X33528000Y35560000D03*
X7874000Y37592000D03*
X33528000Y39624000D03*
X7620000Y28194000D03*
%TO.N,+3V3*%
X7604895Y36604000D03*
X18006000Y19812000D03*
X37475000Y32121000D03*
X27940000Y21336000D03*
X25908000Y26115498D03*
X32512000Y33020000D03*
X31832000Y44024000D03*
X2540000Y44704000D03*
%TO.N,/Peripherals/MAG_DRDY*%
X21844000Y24892000D03*
X19050000Y24892000D03*
%TO.N,/Peripherals/MAG_SDA_MOSI*%
X12001500Y18351500D03*
X14033500Y18351500D03*
%TD*%
D14*
%TO.N,/Peripherals/MAG_DRDY*%
X21844000Y24892000D02*
X19050000Y24892000D01*
D15*
%TO.N,+3V3*%
X25908000Y26115498D02*
X25916402Y26123900D01*
X25916402Y26123900D02*
X28155900Y26123900D01*
X37475000Y32121000D02*
X37475000Y43805000D01*
X37475000Y43805000D02*
X37084000Y44196000D01*
X32004000Y44196000D02*
X31832000Y44024000D01*
X37084000Y44196000D02*
X32004000Y44196000D01*
D14*
%TO.N,/Peripherals/MAG_SDA_MOSI*%
X12001500Y18351500D02*
X14033500Y18351500D01*
D15*
%TO.N,+3V3*%
X26924000Y21336000D02*
X27940000Y21336000D01*
X22860000Y17272000D02*
X26924000Y21336000D01*
X32512000Y33528000D02*
X32512000Y33020000D01*
X32727900Y33743900D02*
X32512000Y33528000D01*
X37475000Y33743900D02*
X32727900Y33743900D01*
X2568000Y36604000D02*
X7604895Y36604000D01*
X2540000Y36576000D02*
X2568000Y36604000D01*
X27940000Y22352000D02*
X30988000Y22352000D01*
X27940000Y25908000D02*
X27940000Y21336000D01*
X28155900Y26123900D02*
X27940000Y25908000D01*
X29464000Y27432000D02*
X28155900Y26123900D01*
X30988000Y30480000D02*
X29464000Y28956000D01*
X35834000Y30480000D02*
X30988000Y30480000D01*
X29464000Y28956000D02*
X29464000Y27432000D01*
X37475000Y32121000D02*
X35834000Y30480000D01*
X6604000Y20828000D02*
X10668000Y20828000D01*
X2540000Y24892000D02*
X6604000Y20828000D01*
X2540000Y33782000D02*
X2540000Y44704000D01*
X18006000Y15829696D02*
X18006000Y19812000D01*
X18034000Y15801696D02*
X18006000Y15829696D01*
X5006696Y15801696D02*
X6657696Y15801696D01*
X3937000Y14732000D02*
X5006696Y15801696D01*
%TD*%
%TA.AperFunction,Conductor*%
%TO.N,GND*%
G36*
X34431815Y50652498D02*
G01*
X34478308Y50598842D01*
X34488412Y50528568D01*
X34458918Y50463988D01*
X34424395Y50436085D01*
X34242478Y50336076D01*
X34011181Y50168030D01*
X34011181Y50168028D01*
X34980538Y49198671D01*
X34843398Y49099033D01*
X34720967Y48976602D01*
X34621329Y48839462D01*
X33654397Y49806394D01*
X33654396Y49806394D01*
X33570745Y49705276D01*
X33570743Y49705273D01*
X33405297Y49444571D01*
X33405293Y49444563D01*
X33273817Y49165167D01*
X33178399Y48871502D01*
X33178396Y48871490D01*
X33120536Y48568171D01*
X33101148Y48260006D01*
X33101148Y48259995D01*
X33120536Y47951830D01*
X33178396Y47648511D01*
X33178399Y47648499D01*
X33273817Y47354834D01*
X33405293Y47075438D01*
X33405297Y47075430D01*
X33570746Y46814723D01*
X33570749Y46814720D01*
X33654396Y46713609D01*
X33654397Y46713608D01*
X34621328Y47680540D01*
X34720967Y47543398D01*
X34843398Y47420967D01*
X34980538Y47321330D01*
X34011181Y46351974D01*
X34011181Y46351972D01*
X34242478Y46183925D01*
X34513072Y46035165D01*
X34800167Y45921495D01*
X34800185Y45921490D01*
X35099242Y45844705D01*
X35099270Y45844700D01*
X35405592Y45806002D01*
X35405611Y45806000D01*
X35714389Y45806000D01*
X35714407Y45806002D01*
X36020729Y45844700D01*
X36020757Y45844705D01*
X36319814Y45921490D01*
X36319832Y45921495D01*
X36606927Y46035165D01*
X36877525Y46183928D01*
X37108817Y46351972D01*
X37108817Y46351974D01*
X36139461Y47321330D01*
X36276602Y47420967D01*
X36399033Y47543398D01*
X36498670Y47680539D01*
X37465601Y46713608D01*
X37465602Y46713609D01*
X37549253Y46814725D01*
X37714709Y47075442D01*
X37714709Y47075444D01*
X37732490Y47113228D01*
X37779592Y47166349D01*
X37847937Y47185572D01*
X37915825Y47164793D01*
X37961702Y47110610D01*
X37972498Y47059580D01*
X37972498Y44366741D01*
X37952496Y44298620D01*
X37898840Y44252127D01*
X37828566Y44242023D01*
X37763986Y44271517D01*
X37757403Y44277646D01*
X37411823Y44623226D01*
X37411820Y44623228D01*
X37290082Y44693514D01*
X37290079Y44693515D01*
X37290078Y44693516D01*
X37290076Y44693517D01*
X37290075Y44693517D01*
X37250947Y44704001D01*
X37154289Y44729900D01*
X32074289Y44729900D01*
X31933711Y44729900D01*
X31860945Y44710403D01*
X31797924Y44693517D01*
X31797917Y44693514D01*
X31676181Y44623229D01*
X31676175Y44623224D01*
X31617691Y44564740D01*
X31576817Y44537429D01*
X31543532Y44523641D01*
X31543530Y44523640D01*
X31543528Y44523639D01*
X31424044Y44431956D01*
X31332363Y44312475D01*
X31332358Y44312467D01*
X31274722Y44173321D01*
X31255064Y44024001D01*
X31255064Y44024000D01*
X31274722Y43874680D01*
X31332358Y43735534D01*
X31332363Y43735526D01*
X31424044Y43616045D01*
X31543525Y43524364D01*
X31543532Y43524359D01*
X31682678Y43466723D01*
X31832000Y43447064D01*
X31981322Y43466723D01*
X32120468Y43524359D01*
X32239955Y43616045D01*
X32239956Y43616046D01*
X32245795Y43621884D01*
X32247527Y43620152D01*
X32294815Y43654674D01*
X32337431Y43662100D01*
X36810662Y43662100D01*
X36878783Y43642098D01*
X36899757Y43625195D01*
X36904195Y43620757D01*
X36938221Y43558445D01*
X36941100Y43531662D01*
X36941100Y34403800D01*
X36921098Y34335679D01*
X36867442Y34289186D01*
X36815100Y34277800D01*
X32798189Y34277800D01*
X32657611Y34277800D01*
X32584845Y34258303D01*
X32521824Y34241417D01*
X32521817Y34241414D01*
X32400079Y34171128D01*
X32292129Y34063177D01*
X32184178Y33955226D01*
X32084774Y33855822D01*
X32084772Y33855820D01*
X32014486Y33734083D01*
X32014483Y33734076D01*
X31978100Y33598288D01*
X31978100Y33250822D01*
X31968509Y33202605D01*
X31954723Y33169323D01*
X31935064Y33020001D01*
X31935064Y33020000D01*
X31954722Y32870680D01*
X32012358Y32731534D01*
X32012363Y32731526D01*
X32104044Y32612045D01*
X32223525Y32520364D01*
X32223532Y32520359D01*
X32362678Y32462723D01*
X32512000Y32443064D01*
X32661322Y32462723D01*
X32800468Y32520359D01*
X32919955Y32612045D01*
X33011641Y32731532D01*
X33069277Y32870678D01*
X33088936Y33020000D01*
X33082675Y33067554D01*
X33093614Y33137701D01*
X33140741Y33190800D01*
X33207597Y33210000D01*
X36815100Y33210000D01*
X36883221Y33189998D01*
X36929714Y33136342D01*
X36941100Y33084000D01*
X36941100Y32394339D01*
X36921098Y32326218D01*
X36904195Y32305244D01*
X35649757Y31050805D01*
X35587445Y31016780D01*
X35560662Y31013900D01*
X30917711Y31013900D01*
X30844945Y30994403D01*
X30781924Y30977517D01*
X30781917Y30977514D01*
X30660180Y30907229D01*
X30660174Y30907224D01*
X29898176Y30145225D01*
X29136178Y29383226D01*
X29036774Y29283822D01*
X29036772Y29283820D01*
X28966486Y29162083D01*
X28966483Y29162076D01*
X28930100Y29026288D01*
X28930100Y27705338D01*
X28910098Y27637217D01*
X28893195Y27616243D01*
X27971657Y26694705D01*
X27909345Y26660679D01*
X27882562Y26657800D01*
X26118538Y26657800D01*
X26070323Y26667390D01*
X26057322Y26672775D01*
X26057320Y26672776D01*
X25908000Y26692434D01*
X25758679Y26672776D01*
X25619533Y26615140D01*
X25619525Y26615135D01*
X25500044Y26523454D01*
X25408363Y26403973D01*
X25408358Y26403965D01*
X25350722Y26264819D01*
X25331064Y26115499D01*
X25331064Y26115498D01*
X25350722Y25966178D01*
X25408358Y25827032D01*
X25408363Y25827024D01*
X25500044Y25707543D01*
X25619525Y25615862D01*
X25619532Y25615857D01*
X25758678Y25558221D01*
X25908000Y25538562D01*
X26057322Y25558221D01*
X26095927Y25574212D01*
X26110890Y25580409D01*
X26159107Y25590000D01*
X27280100Y25590000D01*
X27348221Y25569998D01*
X27394714Y25516342D01*
X27406100Y25464000D01*
X27406100Y21995900D01*
X27386098Y21927779D01*
X27332442Y21881286D01*
X27280100Y21869900D01*
X26994289Y21869900D01*
X26853711Y21869900D01*
X26788265Y21852364D01*
X26717924Y21833517D01*
X26717917Y21833514D01*
X26596179Y21763228D01*
X26596176Y21763226D01*
X22645692Y17812742D01*
X22604817Y17785429D01*
X22571534Y17771643D01*
X22571528Y17771639D01*
X22452044Y17679956D01*
X22360363Y17560475D01*
X22360358Y17560467D01*
X22302722Y17421321D01*
X22283064Y17272001D01*
X22283064Y17272000D01*
X22302722Y17122680D01*
X22360358Y16983534D01*
X22360363Y16983526D01*
X22452044Y16864045D01*
X22571525Y16772364D01*
X22571532Y16772359D01*
X22710678Y16714723D01*
X22860000Y16695064D01*
X23009322Y16714723D01*
X23148468Y16772359D01*
X23267955Y16864045D01*
X23359641Y16983532D01*
X23373427Y17016816D01*
X23400738Y17057692D01*
X27108243Y20765195D01*
X27170555Y20799221D01*
X27197338Y20802100D01*
X27709178Y20802100D01*
X27757395Y20792509D01*
X27768344Y20787974D01*
X27790678Y20778723D01*
X27940000Y20759064D01*
X28089322Y20778723D01*
X28228468Y20836359D01*
X28347955Y20928045D01*
X28439641Y21047532D01*
X28497277Y21186678D01*
X28516936Y21336000D01*
X28497277Y21485322D01*
X28483491Y21518605D01*
X28473900Y21566822D01*
X28473900Y21692100D01*
X28493902Y21760221D01*
X28547558Y21806714D01*
X28599900Y21818100D01*
X30757178Y21818100D01*
X30805395Y21808509D01*
X30809729Y21806714D01*
X30838678Y21794723D01*
X30988000Y21775064D01*
X31137322Y21794723D01*
X31276468Y21852359D01*
X31395955Y21944045D01*
X31487641Y22063532D01*
X31545277Y22202678D01*
X31564936Y22352000D01*
X31545277Y22501322D01*
X31487641Y22640468D01*
X31487636Y22640475D01*
X31395955Y22759956D01*
X31276474Y22851637D01*
X31276466Y22851642D01*
X31137320Y22909278D01*
X30988000Y22928936D01*
X30838677Y22909277D01*
X30805395Y22895491D01*
X30757178Y22885900D01*
X28599900Y22885900D01*
X28531779Y22905902D01*
X28485286Y22959558D01*
X28473900Y23011900D01*
X28473900Y25634662D01*
X28493902Y25702783D01*
X28510805Y25723757D01*
X29891225Y27104177D01*
X29891227Y27104180D01*
X29961516Y27225922D01*
X29997900Y27361711D01*
X29997900Y27502289D01*
X29997900Y28682662D01*
X30017902Y28750783D01*
X30034805Y28771757D01*
X31172244Y29909195D01*
X31234556Y29943221D01*
X31261339Y29946100D01*
X35904287Y29946100D01*
X35904289Y29946100D01*
X36040078Y29982484D01*
X36161822Y30052774D01*
X37689310Y31580264D01*
X37730183Y31607573D01*
X37763468Y31621359D01*
X37769793Y31626213D01*
X37836012Y31651814D01*
X37905561Y31637550D01*
X37956358Y31587950D01*
X37972498Y31526251D01*
X37972500Y8919101D01*
X37972500Y8895507D01*
X37972020Y8884525D01*
X37956102Y8702588D01*
X37952289Y8680959D01*
X37906452Y8509891D01*
X37898940Y8489252D01*
X37824090Y8328737D01*
X37813108Y8309717D01*
X37711528Y8164645D01*
X37697410Y8147820D01*
X37572180Y8022590D01*
X37555355Y8008472D01*
X37410283Y7906892D01*
X37391263Y7895910D01*
X37230748Y7821060D01*
X37210109Y7813548D01*
X37039041Y7767711D01*
X37017412Y7763898D01*
X36835475Y7747980D01*
X36824493Y7747500D01*
X26632629Y7747500D01*
X26632609Y7747498D01*
X26560017Y7747498D01*
X26342754Y7713087D01*
X26342748Y7713086D01*
X26133553Y7645115D01*
X26133547Y7645112D01*
X25937549Y7545246D01*
X25759589Y7415950D01*
X25759586Y7415948D01*
X25604050Y7260412D01*
X25474755Y7082453D01*
X25374889Y6886455D01*
X25374888Y6886453D01*
X25327549Y6740758D01*
X25306913Y6677248D01*
X25286505Y6548393D01*
X25272502Y6459983D01*
X25272502Y6375361D01*
X25272500Y1299102D01*
X25272500Y1275507D01*
X25272020Y1264525D01*
X25256102Y1082588D01*
X25252289Y1060959D01*
X25206452Y889891D01*
X25198940Y869252D01*
X25124090Y708737D01*
X25113108Y689717D01*
X25011528Y544645D01*
X24997410Y527820D01*
X24872180Y402590D01*
X24855355Y388472D01*
X24710283Y286892D01*
X24691263Y275910D01*
X24530748Y201060D01*
X24510109Y193548D01*
X24339041Y147711D01*
X24317412Y143898D01*
X24135475Y127980D01*
X24124493Y127500D01*
X13975507Y127500D01*
X13964525Y127979D01*
X13782587Y143897D01*
X13760958Y147711D01*
X13589890Y193548D01*
X13569251Y201060D01*
X13408736Y275910D01*
X13389716Y286892D01*
X13244644Y388472D01*
X13227819Y402590D01*
X13102589Y527820D01*
X13088471Y544645D01*
X12986891Y689717D01*
X12975909Y708737D01*
X12964340Y733546D01*
X12901057Y869257D01*
X12893549Y889885D01*
X12847709Y1060961D01*
X12843896Y1082589D01*
X12843183Y1090736D01*
X13976000Y1090736D01*
X14004976Y945066D01*
X14004978Y945061D01*
X14061814Y807848D01*
X14144327Y684358D01*
X14144332Y684351D01*
X14249350Y579333D01*
X14249357Y579328D01*
X14372846Y496815D01*
X14476000Y454088D01*
X14476000Y1004940D01*
X14489940Y980795D01*
X14545795Y924940D01*
X14614204Y885444D01*
X14690504Y865000D01*
X14769496Y865000D01*
X14845796Y885444D01*
X14914205Y924940D01*
X14970060Y980795D01*
X14984000Y1004940D01*
X14984000Y454088D01*
X15087153Y496815D01*
X15210642Y579328D01*
X15210649Y579333D01*
X15315667Y684351D01*
X15315672Y684358D01*
X15398185Y807848D01*
X15455021Y945061D01*
X15455023Y945066D01*
X15483999Y1090736D01*
X22616000Y1090736D01*
X22644976Y945066D01*
X22644978Y945061D01*
X22701814Y807848D01*
X22784327Y684358D01*
X22784332Y684351D01*
X22889350Y579333D01*
X22889357Y579328D01*
X23012846Y496815D01*
X23116000Y454088D01*
X23116000Y1004940D01*
X23129940Y980795D01*
X23185795Y924940D01*
X23254204Y885444D01*
X23330504Y865000D01*
X23409496Y865000D01*
X23485796Y885444D01*
X23554205Y924940D01*
X23610060Y980795D01*
X23624000Y1004940D01*
X23624000Y454088D01*
X23727153Y496815D01*
X23850642Y579328D01*
X23850649Y579333D01*
X23955667Y684351D01*
X23955672Y684358D01*
X24038185Y807848D01*
X24095021Y945061D01*
X24095023Y945066D01*
X24123999Y1090736D01*
X24124000Y1090740D01*
X24124000Y1211000D01*
X23670000Y1211000D01*
X23670000Y1719000D01*
X24124000Y1719000D01*
X24124000Y1839261D01*
X24123999Y1839265D01*
X24095023Y1984935D01*
X24095021Y1984940D01*
X24038185Y2122153D01*
X23955672Y2245643D01*
X23955667Y2245650D01*
X23850649Y2350668D01*
X23850642Y2350673D01*
X23727154Y2433185D01*
X23624000Y2475914D01*
X23624000Y1925061D01*
X23610060Y1949205D01*
X23554205Y2005060D01*
X23485796Y2044556D01*
X23409496Y2065000D01*
X23330504Y2065000D01*
X23254204Y2044556D01*
X23185795Y2005060D01*
X23129940Y1949205D01*
X23116000Y1925061D01*
X23116000Y2475914D01*
X23012845Y2433185D01*
X22889357Y2350673D01*
X22889350Y2350668D01*
X22784332Y2245650D01*
X22784327Y2245643D01*
X22701814Y2122153D01*
X22644978Y1984940D01*
X22644976Y1984935D01*
X22616000Y1839265D01*
X22616000Y1719000D01*
X23070000Y1719000D01*
X23070000Y1211000D01*
X22616000Y1211000D01*
X22616000Y1090736D01*
X15483999Y1090736D01*
X15484000Y1090740D01*
X15484000Y1211000D01*
X15030000Y1211000D01*
X15030000Y1719000D01*
X15484000Y1719000D01*
X15484000Y1839261D01*
X15483999Y1839265D01*
X15455023Y1984935D01*
X15455021Y1984940D01*
X15398185Y2122153D01*
X15315672Y2245643D01*
X15315667Y2245650D01*
X15210649Y2350668D01*
X15210642Y2350673D01*
X15087154Y2433185D01*
X14984000Y2475914D01*
X14984000Y1925061D01*
X14970060Y1949205D01*
X14914205Y2005060D01*
X14845796Y2044556D01*
X14769496Y2065000D01*
X14690504Y2065000D01*
X14614204Y2044556D01*
X14545795Y2005060D01*
X14489940Y1949205D01*
X14476000Y1925061D01*
X14476000Y2475914D01*
X14372845Y2433185D01*
X14249357Y2350673D01*
X14249350Y2350668D01*
X14144332Y2245650D01*
X14144327Y2245643D01*
X14061814Y2122153D01*
X14004978Y1984940D01*
X14004976Y1984935D01*
X13976000Y1839265D01*
X13976000Y1719000D01*
X14430000Y1719000D01*
X14430000Y1211000D01*
X13976000Y1211000D01*
X13976000Y1090736D01*
X12843183Y1090736D01*
X12827979Y1264526D01*
X12827500Y1275507D01*
X12827500Y5020736D01*
X13976000Y5020736D01*
X14004976Y4875066D01*
X14004978Y4875061D01*
X14061814Y4737848D01*
X14144327Y4614358D01*
X14144332Y4614351D01*
X14249350Y4509333D01*
X14249357Y4509328D01*
X14372846Y4426815D01*
X14476000Y4384088D01*
X14476000Y4934940D01*
X14489940Y4910795D01*
X14545795Y4854940D01*
X14614204Y4815444D01*
X14690504Y4795000D01*
X14769496Y4795000D01*
X14845796Y4815444D01*
X14914205Y4854940D01*
X14970060Y4910795D01*
X14984000Y4934940D01*
X14984000Y4384088D01*
X15087153Y4426815D01*
X15210642Y4509328D01*
X15210649Y4509333D01*
X15315667Y4614351D01*
X15315672Y4614358D01*
X15398185Y4737848D01*
X15455021Y4875061D01*
X15455023Y4875067D01*
X15465212Y4926288D01*
X15498119Y4989198D01*
X15559814Y5024330D01*
X15630709Y5020530D01*
X15688295Y4979005D01*
X15697969Y4962364D01*
X15698705Y4962788D01*
X15767420Y4843769D01*
X15767428Y4843759D01*
X15858758Y4752429D01*
X15858763Y4752425D01*
X15858765Y4752423D01*
X15858766Y4752422D01*
X15858768Y4752421D01*
X15970638Y4687833D01*
X16095407Y4654401D01*
X16095411Y4654400D01*
X16224589Y4654400D01*
X16286976Y4671117D01*
X16349361Y4687833D01*
X16349361Y4687834D01*
X16349364Y4687834D01*
X16461235Y4752423D01*
X16552577Y4843765D01*
X16617166Y4955636D01*
X16619083Y4962788D01*
X16650599Y5080408D01*
X21449400Y5080408D01*
X21482832Y4955639D01*
X21547420Y4843769D01*
X21547428Y4843759D01*
X21638758Y4752429D01*
X21638763Y4752425D01*
X21638765Y4752423D01*
X21638766Y4752422D01*
X21638768Y4752421D01*
X21750638Y4687833D01*
X21875407Y4654401D01*
X21875411Y4654400D01*
X22004589Y4654400D01*
X22066976Y4671117D01*
X22129361Y4687833D01*
X22129361Y4687834D01*
X22129364Y4687834D01*
X22241235Y4752423D01*
X22332577Y4843765D01*
X22397166Y4955636D01*
X22397166Y4955637D01*
X22401295Y4962788D01*
X22403942Y4961260D01*
X22439307Y5005178D01*
X22506662Y5027625D01*
X22575460Y5010094D01*
X22623858Y4958151D01*
X22634787Y4926290D01*
X22644977Y4875065D01*
X22644978Y4875061D01*
X22701814Y4737848D01*
X22784327Y4614358D01*
X22784332Y4614351D01*
X22889350Y4509333D01*
X22889357Y4509328D01*
X23012846Y4426815D01*
X23116000Y4384088D01*
X23116000Y4934940D01*
X23129940Y4910795D01*
X23185795Y4854940D01*
X23254204Y4815444D01*
X23330504Y4795000D01*
X23409496Y4795000D01*
X23485796Y4815444D01*
X23554205Y4854940D01*
X23610060Y4910795D01*
X23624000Y4934940D01*
X23624000Y4384088D01*
X23727153Y4426815D01*
X23850642Y4509328D01*
X23850649Y4509333D01*
X23955667Y4614351D01*
X23955672Y4614358D01*
X24038185Y4737848D01*
X24095021Y4875061D01*
X24095023Y4875066D01*
X24123999Y5020736D01*
X24124000Y5020740D01*
X24124000Y5391000D01*
X23670000Y5391000D01*
X23670000Y5899000D01*
X24124000Y5899000D01*
X24124000Y6269261D01*
X24123999Y6269265D01*
X24095023Y6414935D01*
X24095021Y6414940D01*
X24038185Y6552153D01*
X23955672Y6675643D01*
X23955667Y6675650D01*
X23850649Y6780668D01*
X23850642Y6780673D01*
X23727154Y6863185D01*
X23624000Y6905914D01*
X23624000Y6355061D01*
X23610060Y6379205D01*
X23554205Y6435060D01*
X23485796Y6474556D01*
X23409496Y6495000D01*
X23330504Y6495000D01*
X23254204Y6474556D01*
X23185795Y6435060D01*
X23129940Y6379205D01*
X23116000Y6355061D01*
X23116000Y6905914D01*
X23012845Y6863185D01*
X22889357Y6780673D01*
X22889350Y6780668D01*
X22784332Y6675650D01*
X22784327Y6675643D01*
X22701814Y6552153D01*
X22644978Y6414940D01*
X22644976Y6414935D01*
X22616000Y6269265D01*
X22616000Y5899000D01*
X23070000Y5899000D01*
X23070000Y5391000D01*
X22615999Y5391000D01*
X22601630Y5376632D01*
X22595998Y5357450D01*
X22542342Y5310957D01*
X22472068Y5300853D01*
X22407488Y5330347D01*
X22380881Y5362571D01*
X22332579Y5446232D01*
X22332571Y5446242D01*
X22241241Y5537572D01*
X22241231Y5537580D01*
X22129361Y5602168D01*
X22004592Y5635600D01*
X22004589Y5635600D01*
X21875411Y5635600D01*
X21875407Y5635600D01*
X21750638Y5602168D01*
X21638768Y5537580D01*
X21638758Y5537572D01*
X21547428Y5446242D01*
X21547420Y5446232D01*
X21482832Y5334362D01*
X21449400Y5209593D01*
X21449400Y5080408D01*
X16650599Y5080408D01*
X16650600Y5080411D01*
X16650600Y5209589D01*
X16650599Y5209593D01*
X16617167Y5334362D01*
X16552579Y5446232D01*
X16552571Y5446242D01*
X16461241Y5537572D01*
X16461231Y5537580D01*
X16349361Y5602168D01*
X16224592Y5635600D01*
X16224589Y5635600D01*
X16095411Y5635600D01*
X16095407Y5635600D01*
X15970638Y5602168D01*
X15858768Y5537580D01*
X15858758Y5537572D01*
X15767428Y5446242D01*
X15767420Y5446232D01*
X15719119Y5362571D01*
X15667736Y5313578D01*
X15598023Y5300142D01*
X15532112Y5326529D01*
X15491647Y5383354D01*
X15484001Y5391000D01*
X15030000Y5391000D01*
X15030000Y5899000D01*
X15484000Y5899000D01*
X15484000Y6269261D01*
X15483999Y6269265D01*
X15455023Y6414935D01*
X15455021Y6414940D01*
X15398185Y6552153D01*
X15315672Y6675643D01*
X15315667Y6675650D01*
X15210649Y6780668D01*
X15210642Y6780673D01*
X15087154Y6863185D01*
X14984000Y6905914D01*
X14984000Y6355061D01*
X14970060Y6379205D01*
X14914205Y6435060D01*
X14845796Y6474556D01*
X14769496Y6495000D01*
X14690504Y6495000D01*
X14614204Y6474556D01*
X14545795Y6435060D01*
X14489940Y6379205D01*
X14476000Y6355061D01*
X14476000Y6905914D01*
X14372845Y6863185D01*
X14249357Y6780673D01*
X14249350Y6780668D01*
X14144332Y6675650D01*
X14144327Y6675643D01*
X14061814Y6552153D01*
X14004978Y6414940D01*
X14004976Y6414935D01*
X13976000Y6269265D01*
X13976000Y5899000D01*
X14430000Y5899000D01*
X14430000Y5391000D01*
X13976000Y5391000D01*
X13976000Y5020736D01*
X12827500Y5020736D01*
X12827500Y6459983D01*
X12821954Y6495000D01*
X12793089Y6677249D01*
X12725114Y6886454D01*
X12625249Y7082449D01*
X12495953Y7260410D01*
X12495950Y7260413D01*
X12495948Y7260416D01*
X12340415Y7415949D01*
X12340412Y7415951D01*
X12340411Y7415952D01*
X12340410Y7415953D01*
X12162449Y7545249D01*
X11966454Y7645114D01*
X11966453Y7645115D01*
X11966450Y7645116D01*
X11757254Y7713088D01*
X11757250Y7713089D01*
X11757249Y7713089D01*
X11539986Y7747500D01*
X11539983Y7747500D01*
X1275507Y7747500D01*
X1264525Y7747979D01*
X1082587Y7763897D01*
X1060958Y7767711D01*
X889890Y7813548D01*
X869251Y7821060D01*
X708736Y7895910D01*
X689716Y7906892D01*
X544644Y8008472D01*
X527819Y8022590D01*
X402589Y8147820D01*
X388471Y8164645D01*
X286891Y8309717D01*
X275909Y8328737D01*
X201059Y8489252D01*
X193549Y8509885D01*
X147709Y8680961D01*
X143896Y8702589D01*
X127979Y8884526D01*
X127500Y8895507D01*
X127500Y14732000D01*
X3360064Y14732000D01*
X3379722Y14582680D01*
X3437358Y14443534D01*
X3437363Y14443526D01*
X3529044Y14324045D01*
X3648525Y14232364D01*
X3648532Y14232359D01*
X3787678Y14174723D01*
X3937000Y14155064D01*
X4086322Y14174723D01*
X4225468Y14232359D01*
X4344955Y14324045D01*
X4436639Y14443529D01*
X4436639Y14443530D01*
X4436641Y14443532D01*
X4450428Y14476819D01*
X4477737Y14517691D01*
X5190940Y15230892D01*
X5253252Y15264917D01*
X5280035Y15267796D01*
X6426874Y15267796D01*
X6475091Y15258205D01*
X6482783Y15255019D01*
X6508374Y15244419D01*
X6657696Y15224760D01*
X6807018Y15244419D01*
X6946164Y15302055D01*
X7065651Y15393741D01*
X7157337Y15513228D01*
X7214973Y15652374D01*
X7234632Y15801696D01*
X7214973Y15951018D01*
X7157337Y16090164D01*
X7149700Y16100117D01*
X7065651Y16209652D01*
X6946170Y16301333D01*
X6946162Y16301338D01*
X6807016Y16358974D01*
X6657696Y16378632D01*
X6508373Y16358973D01*
X6475091Y16345187D01*
X6426874Y16335596D01*
X4936407Y16335596D01*
X4845881Y16311340D01*
X4800617Y16299212D01*
X4800616Y16299212D01*
X4727371Y16256922D01*
X4678875Y16228923D01*
X4678871Y16228920D01*
X3722690Y15272740D01*
X3681815Y15245428D01*
X3648534Y15231643D01*
X3648528Y15231639D01*
X3529044Y15139956D01*
X3437363Y15020475D01*
X3437358Y15020467D01*
X3379722Y14881321D01*
X3360064Y14732001D01*
X3360064Y14732000D01*
X127500Y14732000D01*
X127500Y18351500D01*
X11424564Y18351500D01*
X11444222Y18202180D01*
X11501858Y18063034D01*
X11501863Y18063026D01*
X11593544Y17943545D01*
X11713025Y17851864D01*
X11713032Y17851859D01*
X11852178Y17794223D01*
X12001500Y17774564D01*
X12150822Y17794223D01*
X12289968Y17851859D01*
X12334998Y17886413D01*
X12405365Y17940406D01*
X12471585Y17966007D01*
X12482069Y17966444D01*
X13552931Y17966444D01*
X13621052Y17946442D01*
X13629635Y17940406D01*
X13745025Y17851864D01*
X13745032Y17851859D01*
X13884178Y17794223D01*
X14033500Y17774564D01*
X14182822Y17794223D01*
X14321968Y17851859D01*
X14441455Y17943545D01*
X14533141Y18063032D01*
X14590777Y18202178D01*
X14610436Y18351500D01*
X14590777Y18500822D01*
X14533141Y18639968D01*
X14533136Y18639975D01*
X14441455Y18759456D01*
X14321974Y18851137D01*
X14321966Y18851142D01*
X14182820Y18908778D01*
X14033500Y18928436D01*
X13884179Y18908778D01*
X13745033Y18851142D01*
X13745025Y18851137D01*
X13629635Y18762594D01*
X13563415Y18736993D01*
X13552931Y18736556D01*
X12482069Y18736556D01*
X12413948Y18756558D01*
X12405365Y18762594D01*
X12289974Y18851137D01*
X12289966Y18851142D01*
X12150820Y18908778D01*
X12001500Y18928436D01*
X11852179Y18908778D01*
X11713033Y18851142D01*
X11713025Y18851137D01*
X11593544Y18759456D01*
X11501863Y18639975D01*
X11501858Y18639967D01*
X11444222Y18500821D01*
X11424564Y18351501D01*
X11424564Y18351500D01*
X127500Y18351500D01*
X127500Y19812000D01*
X17429064Y19812000D01*
X17448722Y19662680D01*
X17448723Y19662678D01*
X17462509Y19629395D01*
X17472100Y19581179D01*
X17472100Y15924163D01*
X17471022Y15907716D01*
X17457064Y15801697D01*
X17457064Y15801696D01*
X17476722Y15652376D01*
X17534358Y15513230D01*
X17534363Y15513222D01*
X17626044Y15393741D01*
X17745525Y15302060D01*
X17745532Y15302055D01*
X17884678Y15244419D01*
X18034000Y15224760D01*
X18183322Y15244419D01*
X18322468Y15302055D01*
X18441955Y15393741D01*
X18533641Y15513228D01*
X18591277Y15652374D01*
X18610936Y15801696D01*
X18591277Y15951018D01*
X18549491Y16051900D01*
X18539900Y16100117D01*
X18539900Y19581179D01*
X18549490Y19629395D01*
X18563277Y19662678D01*
X18582936Y19812000D01*
X18563277Y19961322D01*
X18505641Y20100468D01*
X18505636Y20100475D01*
X18413955Y20219956D01*
X18294474Y20311637D01*
X18294466Y20311642D01*
X18155320Y20369278D01*
X18006000Y20388936D01*
X17856679Y20369278D01*
X17717533Y20311642D01*
X17717525Y20311637D01*
X17598044Y20219956D01*
X17506363Y20100475D01*
X17506358Y20100467D01*
X17448722Y19961321D01*
X17429064Y19812001D01*
X17429064Y19812000D01*
X127500Y19812000D01*
X127500Y24892000D01*
X1963064Y24892000D01*
X1982722Y24742680D01*
X2040358Y24603534D01*
X2040363Y24603526D01*
X2132044Y24484045D01*
X2251525Y24392364D01*
X2251532Y24392359D01*
X2284813Y24378574D01*
X2325693Y24351259D01*
X6276176Y20400775D01*
X6276179Y20400773D01*
X6372198Y20345336D01*
X6397922Y20330484D01*
X6533711Y20294100D01*
X6674289Y20294100D01*
X10437178Y20294100D01*
X10485395Y20284509D01*
X10496344Y20279974D01*
X10518678Y20270723D01*
X10668000Y20251064D01*
X10817322Y20270723D01*
X10956468Y20328359D01*
X11075955Y20420045D01*
X11167641Y20539532D01*
X11225277Y20678678D01*
X11244936Y20828000D01*
X11243835Y20836359D01*
X11225277Y20977321D01*
X11196198Y21047526D01*
X11167641Y21116468D01*
X11113767Y21186678D01*
X11075955Y21235956D01*
X10956474Y21327637D01*
X10956466Y21327642D01*
X10817320Y21385278D01*
X10668000Y21404936D01*
X10518677Y21385277D01*
X10485395Y21371491D01*
X10437178Y21361900D01*
X6877338Y21361900D01*
X6809217Y21381902D01*
X6788243Y21398805D01*
X3295048Y24892000D01*
X18473064Y24892000D01*
X18492722Y24742680D01*
X18550358Y24603534D01*
X18550363Y24603526D01*
X18642044Y24484045D01*
X18761525Y24392364D01*
X18761532Y24392359D01*
X18900678Y24334723D01*
X19050000Y24315064D01*
X19199322Y24334723D01*
X19338468Y24392359D01*
X19383498Y24426913D01*
X19453865Y24480906D01*
X19520085Y24506507D01*
X19530569Y24506944D01*
X21363431Y24506944D01*
X21431552Y24486942D01*
X21440135Y24480906D01*
X21555525Y24392364D01*
X21555532Y24392359D01*
X21694678Y24334723D01*
X21844000Y24315064D01*
X21993322Y24334723D01*
X22132468Y24392359D01*
X22251955Y24484045D01*
X22343641Y24603532D01*
X22401277Y24742678D01*
X22420936Y24892000D01*
X22401277Y25041322D01*
X22343641Y25180468D01*
X22343636Y25180475D01*
X22251955Y25299956D01*
X22132474Y25391637D01*
X22132466Y25391642D01*
X21993320Y25449278D01*
X21844000Y25468936D01*
X21694679Y25449278D01*
X21555533Y25391642D01*
X21555525Y25391637D01*
X21440135Y25303094D01*
X21373915Y25277493D01*
X21363431Y25277056D01*
X19530569Y25277056D01*
X19462448Y25297058D01*
X19453865Y25303094D01*
X19338474Y25391637D01*
X19338466Y25391642D01*
X19199320Y25449278D01*
X19050000Y25468936D01*
X18900679Y25449278D01*
X18761533Y25391642D01*
X18761525Y25391637D01*
X18642044Y25299956D01*
X18550363Y25180475D01*
X18550358Y25180467D01*
X18492722Y25041321D01*
X18473064Y24892001D01*
X18473064Y24892000D01*
X3295048Y24892000D01*
X3080741Y25106307D01*
X3053426Y25147187D01*
X3039641Y25180468D01*
X2947955Y25299956D01*
X2828474Y25391637D01*
X2828466Y25391642D01*
X2689320Y25449278D01*
X2540000Y25468936D01*
X2390679Y25449278D01*
X2251533Y25391642D01*
X2251525Y25391637D01*
X2132044Y25299956D01*
X2040363Y25180475D01*
X2040358Y25180467D01*
X1982722Y25041321D01*
X1963064Y24892001D01*
X1963064Y24892000D01*
X127500Y24892000D01*
X127500Y33782000D01*
X1963064Y33782000D01*
X1982722Y33632680D01*
X2040358Y33493534D01*
X2040363Y33493526D01*
X2132044Y33374045D01*
X2251525Y33282364D01*
X2251532Y33282359D01*
X2390678Y33224723D01*
X2540000Y33205064D01*
X2689322Y33224723D01*
X2828468Y33282359D01*
X2947955Y33374045D01*
X3039641Y33493532D01*
X3097277Y33632678D01*
X3116936Y33782000D01*
X3097277Y33931322D01*
X3083491Y33964605D01*
X3073900Y34012822D01*
X3073900Y35944100D01*
X3093902Y36012221D01*
X3147558Y36058714D01*
X3199900Y36070100D01*
X7374073Y36070100D01*
X7422290Y36060509D01*
X7426624Y36058714D01*
X7455573Y36046723D01*
X7604895Y36027064D01*
X7754217Y36046723D01*
X7893363Y36104359D01*
X8012850Y36196045D01*
X8104536Y36315532D01*
X8162172Y36454678D01*
X8181831Y36604000D01*
X8162172Y36753322D01*
X8104536Y36892468D01*
X8104531Y36892475D01*
X8012850Y37011956D01*
X7893369Y37103637D01*
X7893361Y37103642D01*
X7754215Y37161278D01*
X7604895Y37180936D01*
X7455572Y37161277D01*
X7422290Y37147491D01*
X7374073Y37137900D01*
X3199900Y37137900D01*
X3131779Y37157902D01*
X3085286Y37211558D01*
X3073900Y37263900D01*
X3073900Y44473179D01*
X3083490Y44521395D01*
X3097277Y44554678D01*
X3116936Y44704000D01*
X3097277Y44853322D01*
X3039641Y44992468D01*
X3039636Y44992475D01*
X2947955Y45111956D01*
X2828474Y45203637D01*
X2828466Y45203642D01*
X2689320Y45261278D01*
X2540000Y45280936D01*
X2390679Y45261278D01*
X2251533Y45203642D01*
X2251525Y45203637D01*
X2132044Y45111956D01*
X2040363Y44992475D01*
X2040358Y44992467D01*
X1982722Y44853321D01*
X1963064Y44704001D01*
X1963064Y44704000D01*
X1982722Y44554680D01*
X1982723Y44554678D01*
X1996509Y44521395D01*
X2006100Y44473179D01*
X2006100Y34012822D01*
X1996509Y33964605D01*
X1982723Y33931323D01*
X1963064Y33782001D01*
X1963064Y33782000D01*
X127500Y33782000D01*
X127500Y47059584D01*
X147502Y47127705D01*
X201158Y47174198D01*
X271432Y47184302D01*
X336012Y47154808D01*
X367508Y47113232D01*
X385290Y47075444D01*
X385297Y47075430D01*
X550746Y46814723D01*
X550749Y46814720D01*
X634396Y46713609D01*
X634397Y46713608D01*
X1601328Y47680540D01*
X1700967Y47543398D01*
X1823398Y47420967D01*
X1960538Y47321330D01*
X991181Y46351974D01*
X991181Y46351972D01*
X1222478Y46183925D01*
X1493072Y46035165D01*
X1780167Y45921495D01*
X1780185Y45921490D01*
X2079242Y45844705D01*
X2079270Y45844700D01*
X2385592Y45806002D01*
X2385611Y45806000D01*
X2694389Y45806000D01*
X2694407Y45806002D01*
X3000729Y45844700D01*
X3000757Y45844705D01*
X3299814Y45921490D01*
X3299832Y45921495D01*
X3586927Y46035165D01*
X3857525Y46183928D01*
X4088817Y46351972D01*
X4088817Y46351974D01*
X3119461Y47321330D01*
X3256602Y47420967D01*
X3379033Y47543398D01*
X3478670Y47680539D01*
X4445601Y46713608D01*
X4445602Y46713609D01*
X4529253Y46814725D01*
X4694707Y47075440D01*
X4826182Y47354834D01*
X4921600Y47648499D01*
X4921603Y47648511D01*
X4979463Y47951830D01*
X4998852Y48259995D01*
X4998852Y48260006D01*
X4979463Y48568171D01*
X4921603Y48871490D01*
X4921600Y48871502D01*
X4826182Y49165167D01*
X4808426Y49202899D01*
X5353820Y49202899D01*
X5354237Y49200804D01*
X5382342Y49059514D01*
X5438289Y48924446D01*
X5519511Y48802888D01*
X5622888Y48699511D01*
X5744446Y48618289D01*
X5879514Y48562342D01*
X6022902Y48533820D01*
X6169098Y48533820D01*
X6312486Y48562342D01*
X6447554Y48618289D01*
X6569112Y48699511D01*
X6672489Y48802888D01*
X6753711Y48924446D01*
X6809658Y49059514D01*
X6838179Y49202899D01*
X31261820Y49202899D01*
X31262237Y49200804D01*
X31290342Y49059514D01*
X31346289Y48924446D01*
X31427511Y48802888D01*
X31530888Y48699511D01*
X31652446Y48618289D01*
X31787514Y48562342D01*
X31930902Y48533820D01*
X32077098Y48533820D01*
X32220486Y48562342D01*
X32355554Y48618289D01*
X32477112Y48699511D01*
X32580489Y48802888D01*
X32661711Y48924446D01*
X32717658Y49059514D01*
X32746180Y49202902D01*
X32746180Y49349098D01*
X32717658Y49492486D01*
X32661711Y49627554D01*
X32580489Y49749112D01*
X32477112Y49852489D01*
X32355554Y49933711D01*
X32270381Y49968991D01*
X32220489Y49989657D01*
X32220486Y49989658D01*
X32077101Y50018180D01*
X32077098Y50018180D01*
X31930902Y50018180D01*
X31930898Y50018180D01*
X31787513Y49989658D01*
X31787510Y49989657D01*
X31652446Y49933711D01*
X31530889Y49852490D01*
X31530883Y49852485D01*
X31427515Y49749117D01*
X31427510Y49749111D01*
X31346289Y49627554D01*
X31290343Y49492490D01*
X31290342Y49492487D01*
X31261820Y49349102D01*
X31261820Y49202899D01*
X6838179Y49202899D01*
X6838180Y49202902D01*
X6838180Y49349098D01*
X6809658Y49492486D01*
X6753711Y49627554D01*
X6672489Y49749112D01*
X6569112Y49852489D01*
X6447554Y49933711D01*
X6362381Y49968991D01*
X6312489Y49989657D01*
X6312486Y49989658D01*
X6169101Y50018180D01*
X6169098Y50018180D01*
X6022902Y50018180D01*
X6022898Y50018180D01*
X5879513Y49989658D01*
X5879510Y49989657D01*
X5744446Y49933711D01*
X5622889Y49852490D01*
X5622883Y49852485D01*
X5519515Y49749117D01*
X5519510Y49749111D01*
X5438289Y49627554D01*
X5382343Y49492490D01*
X5382342Y49492487D01*
X5353820Y49349102D01*
X5353820Y49202899D01*
X4808426Y49202899D01*
X4694706Y49444563D01*
X4694702Y49444571D01*
X4529253Y49705278D01*
X4529250Y49705281D01*
X4445602Y49806393D01*
X4445601Y49806394D01*
X3478669Y48839463D01*
X3379033Y48976602D01*
X3256602Y49099033D01*
X3119461Y49198671D01*
X4088817Y50168028D01*
X4088817Y50168030D01*
X3857521Y50336076D01*
X3675605Y50436085D01*
X3625546Y50486431D01*
X3610653Y50555848D01*
X3635654Y50622297D01*
X3692611Y50664681D01*
X3736306Y50672500D01*
X34363694Y50672500D01*
X34431815Y50652498D01*
G37*
%TD.AperFunction*%
%TA.AperFunction,Conductor*%
G36*
X1347685Y50644855D02*
G01*
X1405419Y50603535D01*
X1431649Y50537562D01*
X1418047Y50467880D01*
X1368931Y50416614D01*
X1366892Y50415469D01*
X1222487Y50336082D01*
X1222480Y50336077D01*
X991181Y50168030D01*
X991181Y50168028D01*
X1960538Y49198671D01*
X1823398Y49099033D01*
X1700967Y48976602D01*
X1601329Y48839462D01*
X634397Y49806394D01*
X634396Y49806394D01*
X550745Y49705276D01*
X550743Y49705273D01*
X384642Y49443538D01*
X331253Y49396739D01*
X261038Y49386234D01*
X196290Y49415358D01*
X157566Y49474864D01*
X155738Y49540466D01*
X176646Y49627554D01*
X193538Y49697913D01*
X199640Y49716694D01*
X275918Y49900848D01*
X284882Y49918441D01*
X389039Y50088409D01*
X400638Y50104371D01*
X530092Y50255944D01*
X544056Y50269908D01*
X695629Y50399362D01*
X711591Y50410961D01*
X881559Y50515118D01*
X899152Y50524082D01*
X1083306Y50600360D01*
X1102087Y50606462D01*
X1276777Y50648402D01*
X1347685Y50644855D01*
G37*
%TD.AperFunction*%
%TA.AperFunction,Conductor*%
G36*
X36823190Y50648410D02*
G01*
X36997901Y50606466D01*
X37016703Y50600356D01*
X37200833Y50524087D01*
X37218450Y50515111D01*
X37381051Y50415469D01*
X37388390Y50410972D01*
X37404377Y50399356D01*
X37555933Y50269916D01*
X37569911Y50255938D01*
X37699350Y50104385D01*
X37710972Y50088389D01*
X37815109Y49918452D01*
X37824085Y49900835D01*
X37900354Y49716706D01*
X37906463Y49697903D01*
X37944261Y49540467D01*
X37940715Y49469559D01*
X37899396Y49411825D01*
X37833422Y49385594D01*
X37763741Y49399196D01*
X37715358Y49443538D01*
X37549253Y49705278D01*
X37549250Y49705281D01*
X37465602Y49806393D01*
X37465601Y49806394D01*
X36498669Y48839463D01*
X36399033Y48976602D01*
X36276602Y49099033D01*
X36139461Y49198671D01*
X37108817Y50168028D01*
X37108817Y50168030D01*
X36877521Y50336076D01*
X36733107Y50415468D01*
X36683048Y50465814D01*
X36668155Y50535231D01*
X36693156Y50601680D01*
X36750113Y50644064D01*
X36820943Y50648926D01*
X36823190Y50648410D01*
G37*
%TD.AperFunction*%
%TD*%
M02*
