M48
; DRILL file {KiCad 8.0.0} date 2024-05-19T21:11:36-0400
; FORMAT={-:-/ absolute / inch / decimal}
; #@! TF.CreationDate,2024-05-19T21:11:36-04:00
; #@! TF.GenerationSoftware,Kicad,Pcbnew,8.0.0
; #@! TF.FileFunction,MixedPlating,1,2
FMAT,2
INCH
; #@! TA.AperFunction,Plated,PTH,ViaDrill
T1C0.0130
; #@! TA.AperFunction,Plated,PTH,ComponentDrill
T2C0.0236
; #@! TA.AperFunction,Plated,PTH,ComponentDrill
T3C0.0866
; #@! TA.AperFunction,NonPlated,NPTH,ComponentDrill
T4C0.0256
; #@! TA.AperFunction,NonPlated,NPTH,ComponentDrill
T5C0.0454
%
G90
G05
T1
X0.03Y0.78
X0.04Y1.32
X0.04Y1.24
X0.04Y1.16
X0.04Y0.92
X0.04Y0.66
X0.06Y1.6
X0.1Y1.76
X0.1Y1.33
X0.1Y0.98
X0.12Y0.34
X0.155Y0.58
X0.2Y1.48
X0.2Y1.0
X0.22Y0.78
X0.22Y0.72
X0.22Y0.66
X0.26Y0.54
X0.2621Y0.6221
X0.27Y1.23
X0.2994Y1.4411
X0.3Y1.11
X0.3Y1.04
X0.31Y1.48
X0.32Y0.54
X0.34Y1.94
X0.34Y1.84
X0.34Y0.94
X0.34Y0.66
X0.36Y0.34
X0.38Y0.88
X0.38Y0.78
X0.38Y0.54
X0.4Y1.04
X0.42Y0.82
X0.46Y0.68
X0.4725Y0.7225
X0.5Y0.68
X0.52Y0.54
X0.54Y0.76
X0.54Y0.34
X0.5525Y0.7225
X0.58Y0.54
X0.61Y0.92
X0.62Y0.4
X0.64Y0.82
X0.64Y0.54
X0.66Y0.06
X0.7089Y0.78
X0.71Y0.6221
X0.72Y0.54
X0.75Y0.98
X0.7575Y0.947
X0.76Y0.06
X0.77Y0.34
X0.78Y0.78
X0.84Y0.06
X0.86Y1.02
X0.86Y0.98
X0.86Y0.54
X0.86Y0.48
X0.89Y1.0
X0.9Y0.68
X0.94Y0.38
X0.95Y0.88
X1.02Y1.0282
X1.02Y0.38
X1.03Y0.98
X1.05Y0.94
X1.1Y0.84
X1.18Y1.9
X1.18Y1.84
X1.18Y1.56
X1.18Y1.48
X1.18Y0.72
X1.18Y0.4
X1.22Y0.88
X1.2532Y1.7332
X1.26Y1.84
X1.28Y1.3
X1.28Y1.02
X1.28Y0.94
X1.32Y1.56
X1.32Y1.4
X1.32Y1.3
X1.32Y0.74
X1.32Y0.43
X1.38Y1.02
X1.38Y0.94
X1.3921Y1.1521
X1.46Y0.88
X1.46Y0.72
X1.46Y0.4
X1.47Y0.55
X1.4754Y1.2646
T3
X0.1Y1.9
X1.4Y1.9
T4
X0.6362Y0.2026
X0.8638Y0.2026
T5
X0.24Y1.94
X1.26Y1.94
T2
G00X0.5799Y0.2439
M15
G01X0.5799Y0.2006
M16
G05
G00X0.5799Y0.0695
M15
G01X0.5799Y0.0459
M16
G05
G00X0.9201Y0.2439
M15
G01X0.9201Y0.2006
M16
G05
G00X0.9201Y0.0695
M15
G01X0.9201Y0.0459
M16
G05
M30
